<?xml version="1.0" encoding="UTF-8"?>
<svg id="Layer_1" xmlns="http://www.w3.org/2000/svg" version="1.1" xmlns:xlink="http://www.w3.org/1999/xlink" viewBox="0 0 1800 500">
  <!-- Generator: Adobe Illustrator 29.2.1, SVG Export Plug-In . SVG Version: 2.1.0 Build 116)  -->
  <defs>
    <style>
      .st0 {
        fill: #fff;
      }

      .st1 {
        fill: #89a1d8;
      }

      .st2 {
        fill: none;
      }

      .st3 {
        fill: #d889ba;
      }
    </style>
  </defs>
  <path class="st0" d="M602.9,262c6.3,6.9,9.5,15.4,9.5,25.5s-3.2,18.6-9.5,25.5c-6.3,7-14.4,10.4-24.2,10.4s-16.4-2.8-22.2-8.5v40.9h-23.4v-102.3h23.1v7.7h.3c5.8-6.4,13.2-9.6,22.2-9.6s17.9,3.5,24.2,10.4ZM583,299c3-3,4.6-6.8,4.6-11.5s-1.5-8.5-4.4-11.5c-2.9-3-6.7-4.4-11.5-4.4s-8.4,1.5-11.3,4.5-4.4,6.8-4.4,11.4,1.5,8.5,4.6,11.5,6.8,4.5,11.2,4.5,8.3-1.5,11.3-4.5Z"/>
  <path class="st0" d="M621.4,321.5v-67.9h23.4v9.8h.3c.2-.4.5-.8.9-1.3.4-.5,1.3-1.4,2.6-2.8,1.3-1.3,2.8-2.5,4.3-3.6,1.5-1.1,3.4-2,5.8-2.9s4.8-1.3,7.3-1.3,5.1.4,7.5,1.1c2.5.7,4.3,1.4,5.4,2.1l1.9,1.1-9.8,19.8c-2.9-2.5-7-3.7-12.2-3.7s-5.2.6-7.3,1.9c-2,1.2-3.5,2.7-4.3,4.5-.8,1.8-1.4,3.3-1.8,4.5-.3,1.2-.5,2.2-.5,2.9v35.7h-23.4Z"/>
  <path class="st0" d="M691.7,313.4c-7.5-6.7-11.3-15.3-11.3-25.8s3.9-19.1,11.8-25.9c7.8-6.8,17.5-10.1,29.1-10.1s21,3.4,28.8,10.2c7.8,6.8,11.7,15.4,11.7,25.8s-3.8,19-11.5,25.7c-7.6,6.7-17.3,10.1-29,10.1s-22-3.3-29.6-10ZM709.9,276.1c-3,3-4.6,6.8-4.6,11.5s1.4,8.5,4.4,11.4c2.9,3,6.8,4.4,11.5,4.4s8.3-1.5,11.3-4.5c3-3,4.4-6.8,4.4-11.4s-1.5-8.5-4.6-11.5-6.8-4.5-11.2-4.5-8.3,1.5-11.3,4.5Z"/>
  <path class="st0" d="M770.8,253.6v73.8c0,6.2-2.2,9.3-6.5,9.3s-1.8-.2-2.8-.5c-1-.3-1.8-.6-2.4-1l-.8-.5-7.3,18.9c.2,0,.8.3,1.7.8,1,.4,1.7.8,2.2,1,.5.2,1.3.5,2.5.9,1.1.4,2.2.6,3.3.8,1.1.2,2.4.4,4,.5,1.6.2,3.3.3,5,.3,4.4,0,8.3-.8,11.6-2.3,3.3-1.5,5.9-3.6,7.7-6.2,1.8-2.6,3.1-5.3,3.9-8.2.8-2.9,1.3-5.9,1.3-9.2v-78.3h-23.4Z"/>
  <path class="st0" d="M876.7,290.8h-49.2c0,4.8,1.5,8.3,4.6,10.6,3.1,2.3,6.4,3.4,10.1,3.4s6.8-.5,9-1.5c2.2-1,4.7-3,7.6-6l16.9,8.5c-7.1,11.8-18.8,17.7-35.2,17.7s-19-3.5-26.3-10.5c-7.3-7-11-15.5-11-25.3s3.7-18.3,11-25.4c7.3-7.1,16.1-10.6,26.3-10.6s19.5,3.1,26.3,9.3c6.8,6.2,10.1,15.1,10.1,26.6s0,2.6-.1,3.2ZM828.2,277.8h25.8c-.5-3.5-1.9-6.2-4.2-8.1-2.3-1.9-5.1-2.9-8.7-2.9s-7,1-9.3,3c-2.3,2-3.5,4.7-3.7,7.9Z"/>
  <path class="st0" d="M921.9,270.8c-4.4,0-8.2,1.6-11.4,4.9-3.2,3.3-4.8,7.2-4.8,11.8s1.6,8.7,4.8,11.9c3.2,3.3,7,4.9,11.4,4.9s4.1-.3,6-.8c1.9-.5,3.3-1.1,4.2-1.6l1.2-.8,7.9,16.3c-.6.4-1.5,1-2.6,1.7-1.1.7-3.6,1.6-7.5,2.7-3.9,1.2-8.1,1.7-12.6,1.7-10,0-18.7-3.5-26.3-10.5-7.5-7-11.3-15.4-11.3-25.2s3.8-18.4,11.3-25.5c7.5-7.1,16.3-10.6,26.3-10.6s8.6.5,12.4,1.6c3.8,1.1,6.5,2.1,8.1,3.2l2.3,1.6-7.9,16c-2.9-2.1-6.7-3.2-11.4-3.2Z"/>
  <path class="st1" d="M536.7,238.1l-45.8-109.2h28.1l27.5,71.7,27.5-71.7h28.1l-45.8,109.2h-19.6Z"/>
  <path class="st1" d="M610.7,230c-7.5-6.7-11.3-15.3-11.3-25.8s3.9-19.1,11.8-25.9c7.9-6.8,17.6-10.1,29.1-10.1s21,3.4,28.8,10.2c7.8,6.8,11.7,15.4,11.7,25.8s-3.8,19-11.5,25.7c-7.6,6.8-17.3,10.1-29,10.1s-22-3.3-29.6-10ZM628.8,192.7c-3,3-4.6,6.8-4.6,11.5s1.5,8.5,4.4,11.5c2.9,2.9,6.8,4.4,11.5,4.4s8.3-1.5,11.3-4.5c3-3,4.4-6.8,4.4-11.4s-1.5-8.5-4.6-11.5-6.8-4.5-11.2-4.5-8.3,1.5-11.3,4.5Z"/>
  <path class="st1" d="M725.9,187.4c-4.4,0-8.2,1.6-11.4,4.9-3.2,3.3-4.8,7.2-4.8,11.8s1.6,8.6,4.8,11.9c3.2,3.3,7,4.9,11.4,4.9s4.1-.3,6-.8c1.9-.5,3.3-1.1,4.2-1.6l1.2-.8,8,16.3c-.6.4-1.5,1-2.6,1.7-1.1.7-3.6,1.6-7.5,2.7-3.9,1.2-8.1,1.7-12.6,1.7-10,0-18.7-3.5-26.3-10.5-7.5-7-11.3-15.4-11.3-25.2s3.8-18.4,11.3-25.5c7.5-7.1,16.3-10.7,26.3-10.7s8.6.5,12.4,1.6c3.8,1.1,6.5,2.1,8.1,3.2l2.3,1.6-8,16c-2.9-2.1-6.7-3.2-11.4-3.2Z"/>
  <path class="st1" d="M757.4,229.7c-6.3-6.9-9.5-15.4-9.5-25.5s3.2-18.6,9.5-25.5c6.4-7,14.4-10.5,24.2-10.5s16.4,2.8,22.2,8.5v-6.5h23.4v67.9h-23.1v-7.7h-.3c-5.8,6.4-13.2,9.6-22.2,9.6s-17.9-3.5-24.2-10.4ZM777.3,192.7c-3,3-4.6,6.8-4.6,11.5s1.5,8.5,4.4,11.5c2.9,2.9,6.8,4.4,11.5,4.4s8.3-1.5,11.3-4.5c3-3,4.4-6.8,4.4-11.4s-1.5-8.5-4.6-11.5-6.8-4.5-11.2-4.5-8.3,1.5-11.3,4.5Z"/>
  <path class="st1" d="M841.2,238.1v-113.8h23.4v113.8h-23.4Z"/>
  <rect class="st2" x="945.7" y="167.4" width="77.3" height="77.3"/>
  <path class="st3" d="M916.2,215.1c3.8,0,7.5-.6,11-1.7,3.6-1.2,6.2-2.3,7.9-3.3l2.5-1.7,10.6,21.2c-.4.3-.9.6-1.5,1.1-.6.4-2,1.2-4.3,2.4-2.2,1.2-4.6,2.2-7.2,3.1-2.6.9-5.9,1.7-10.1,2.4-4.1.7-8.4,1.1-12.8,1.1-10.1,0-19.8-2.5-28.8-7.5-9.1-5-16.4-11.8-22-20.6-5.6-8.7-8.3-18.2-8.3-28.3s1.6-15,4.9-22.1c3.3-7.1,7.6-13.1,13-18.1,5.4-5,11.8-9,19-12,7.2-3,14.6-4.5,22.2-4.5s13.6.8,19.5,2.5c6,1.7,10.2,3.3,12.6,5l3.7,2.5-10.6,21.2c-.6-.5-1.6-1.2-2.8-1.9-1.2-.8-3.7-1.7-7.4-3-3.7-1.2-7.4-1.9-11.2-1.9-6,0-11.4,1-16.1,2.9-4.8,1.9-8.5,4.5-11.3,7.7-2.8,3.2-4.9,6.6-6.4,10.3-1.5,3.7-2.2,7.4-2.2,11.2,0,8.3,3.1,15.7,9.3,22.3,6.2,6.6,15.1,9.9,26.7,9.9Z"/>
  <path class="st3" d="M962.2,229.5c-7.5-6.7-11.3-15.3-11.3-25.8s3.9-19.1,11.8-25.9c7.8-6.8,17.5-10.1,29.1-10.1s21,3.4,28.8,10.2c7.8,6.8,11.7,15.4,11.7,25.8s-3.8,19-11.5,25.7c-7.6,6.7-17.3,10.1-29,10.1s-22-3.3-29.6-10ZM980.3,192.2c-3,3-4.6,6.8-4.6,11.5s1.4,8.5,4.4,11.4c2.9,3,6.8,4.4,11.5,4.4s8.3-1.5,11.3-4.5c3-3,4.4-6.8,4.4-11.4s-1.5-8.5-4.6-11.5-6.8-4.5-11.2-4.5-8.3,1.5-11.3,4.5Z"/>
  <path class="st3" d="M1041.2,237.6v-67.9h23.4v7.1h.3c6.1-6.1,12.6-9.1,19.5-9.1s6.7.4,10,1.3c3.3.9,6.5,2.2,9.5,4.1,3,1.8,5.5,4.5,7.4,7.9,1.9,3.4,2.9,7.3,2.9,11.8v44.7h-23.4v-38.4c0-3.5-1.1-6.6-3.4-9.3-2.2-2.7-5.2-4-8.8-4s-6.7,1.4-9.6,4.1c-2.9,2.7-4.3,5.8-4.3,9.1v38.4h-23.4Z"/>
  <path class="st3" d="M1123.6,254.2l19.2-9.4c3.5,5.8,9.6,8.7,18.4,8.7s7.8-1.3,11.3-3.9c3.5-2.6,5.2-6.6,5.2-12v-5c-4.2,4.6-11.6,6.9-22.2,6.9s-17.9-3.5-24.2-10.4c-6.3-6.9-9.5-15.4-9.5-25.5s3.2-18.6,9.5-25.5c6.3-7,14.4-10.5,24.2-10.5s16,2.7,21.8,8.1h.4v-6.1h23.4v69.7c0,11-3.7,19.5-11,25.5-7.3,6-17,9-29,9-19.4,0-31.9-6.6-37.6-19.7ZM1151.2,192.2c-3,3-4.6,6.8-4.6,11.5s1.4,8.5,4.4,11.4c2.9,3,6.8,4.4,11.5,4.4s8.3-1.5,11.3-4.5c3-3,4.4-6.8,4.4-11.4s-1.5-8.5-4.6-11.5-6.8-4.5-11.2-4.5-8.3,1.5-11.3,4.5Z"/>
  <path class="st3" d="M1215,237.6v-67.9h23.4v9.8h.3c.2-.4.5-.8.9-1.3.4-.5,1.3-1.4,2.6-2.8,1.3-1.3,2.8-2.5,4.3-3.6,1.5-1.1,3.4-2,5.8-2.9s4.8-1.3,7.3-1.3,5.1.4,7.5,1.1c2.5.7,4.3,1.4,5.4,2.1l1.9,1.1-9.8,19.8c-2.9-2.5-7-3.7-12.2-3.7s-5.2.6-7.3,1.9c-2,1.2-3.5,2.7-4.3,4.5-.8,1.8-1.4,3.3-1.8,4.5-.3,1.2-.5,2.2-.5,2.9v35.7h-23.4Z"/>
  <path class="st3" d="M1301,169.7v32.3c0,6.7,1,11.5,3,14.3,2,2.8,5.5,4.2,10.3,4.2s8.3-1.4,10.3-4.2c2-2.8,3-7.6,3-14.3v-32.3h23.4v38c0,11.3-2.9,19.4-8.8,24.4-5.9,5-15.2,7.5-28,7.5s-22.1-2.5-28-7.5c-5.9-5-8.8-13.1-8.8-24.4v-38h23.4Z"/>
  <path class="st3" d="M1432.4,206.9h-49.2c0,4.8,1.5,8.3,4.6,10.6,3.1,2.3,6.4,3.4,10.1,3.4s6.8-.5,9-1.5c2.2-1,4.7-3,7.6-6l16.9,8.5c-7.1,11.8-18.8,17.7-35.2,17.7s-19-3.5-26.3-10.5c-7.3-7-11-15.5-11-25.3s3.7-18.3,11-25.4c7.3-7.1,16.1-10.6,26.3-10.6s19.5,3.1,26.3,9.3c6.8,6.2,10.1,15.1,10.1,26.6s0,2.6-.1,3.2ZM1383.8,193.9h25.8c-.5-3.5-1.9-6.2-4.2-8.1-2.3-1.9-5.1-2.9-8.7-2.9s-7,1-9.3,3c-2.3,2-3.5,4.7-3.7,7.9Z"/>
  <path class="st3" d="M1441.5,237.6v-67.9h23.4v7.1h.3c6.1-6.1,12.6-9.1,19.5-9.1s6.7.4,10,1.3c3.3.9,6.5,2.2,9.5,4.1,3,1.8,5.5,4.5,7.4,7.9,1.9,3.4,2.9,7.3,2.9,11.8v44.7h-23.4v-38.4c0-3.5-1.1-6.6-3.4-9.3-2.2-2.7-5.2-4-8.8-4s-6.7,1.4-9.6,4.1c-2.9,2.7-4.3,5.8-4.3,9.1v38.4h-23.4Z"/>
  <path class="st3" d="M1563.1,186.9c-4.4,0-8.2,1.6-11.4,4.9-3.2,3.3-4.8,7.2-4.8,11.8s1.6,8.7,4.8,11.9c3.2,3.3,7,4.9,11.4,4.9s4.1-.3,6-.8c1.9-.5,3.3-1.1,4.2-1.6l1.2-.8,7.9,16.3c-.6.4-1.5,1-2.6,1.7-1.1.7-3.6,1.6-7.5,2.7-3.9,1.2-8.1,1.7-12.6,1.7-10,0-18.7-3.5-26.3-10.5-7.5-7-11.3-15.4-11.3-25.2s3.8-18.4,11.3-25.5c7.5-7.1,16.3-10.6,26.3-10.6s8.6.5,12.4,1.6c3.8,1.1,6.5,2.1,8.1,3.2l2.3,1.6-7.9,16c-2.9-2.1-6.7-3.2-11.4-3.2Z"/>
  <path class="st3" d="M1658.6,206.9h-49.2c0,4.8,1.5,8.3,4.6,10.6,3.1,2.3,6.4,3.4,10.1,3.4s6.8-.5,9-1.5c2.2-1,4.7-3,7.6-6l16.9,8.5c-7.1,11.8-18.8,17.7-35.2,17.7s-19-3.5-26.3-10.5c-7.3-7-11-15.5-11-25.3s3.7-18.3,11-25.4c7.3-7.1,16.1-10.6,26.3-10.6s19.5,3.1,26.3,9.3c6.8,6.2,10.1,15.1,10.1,26.6s0,2.6-.1,3.2ZM1610,193.9h25.8c-.5-3.5-1.9-6.2-4.2-8.1-2.3-1.9-5.1-2.9-8.7-2.9s-7,1-9.3,3c-2.3,2-3.5,4.7-3.7,7.9Z"/>
  <g>
    <path class="st0" d="M173.1,227.1c0-21.1,3.9-40.9,11.7-59.2,7.8-18.4,18.6-34.5,32.5-48.4s30-24.7,48.2-32.5c18.2-7.8,37.9-11.7,59-11.7s40.9,3.9,59.2,11.7c18.4,7.8,34.5,18.6,48.4,32.5,13.9,13.9,24.7,30,32.5,48.4,7.8,18.3,11.7,38.1,11.7,59.2s-3.9,40.8-11.7,59c-7.8,18.2-18.6,34.3-32.5,48.2-13.9,13.9-30,24.8-48.4,32.5-18.3,7.8-38.1,11.7-59.2,11.7s-40.8-3.9-59-11.7c-18.2-7.8-34.3-18.6-48.2-32.5-13.9-13.9-24.8-30-32.5-48.2-7.8-18.2-11.7-37.9-11.7-59Z"/>
    <circle class="st0" cx="324.7" cy="226.9" r="151.6"/>
  </g>
  <path class="st1" d="M265.7,301.3l-60.8-145h37.3l36.6,95.3,36.6-95.3h37.3l-60.8,145h-26Z"/>
  <path class="st3" d="M394.8,270.8c5,0,9.9-.8,14.6-2.3,4.8-1.5,8.2-3,10.5-4.4l3.3-2.3,14.1,28.1c-.5.3-1.1.8-1.9,1.4-.8.6-2.7,1.7-5.7,3.3-3,1.6-6.2,3-9.6,4.1-3.4,1.2-7.9,2.2-13.4,3.1-5.5.9-11.2,1.4-17,1.4-13.5,0-26.2-3.3-38.3-9.9-12.1-6.6-21.8-15.7-29.2-27.3-7.4-11.6-11.1-24.1-11.1-37.6s2.2-20,6.5-29.4,10.1-17.4,17.3-24.1c7.2-6.7,15.6-12,25.2-16,9.6-4,19.4-6,29.5-6s18,1.1,25.9,3.4c7.9,2.2,13.5,4.4,16.8,6.7l4.9,3.3-14.1,28.1c-.8-.7-2.1-1.6-3.7-2.5-1.6-1-4.9-2.3-9.9-4-4.9-1.6-9.9-2.5-14.9-2.5-8,0-15.1,1.3-21.5,3.9-6.3,2.6-11.3,6-15,10.2-3.7,4.2-6.5,8.7-8.4,13.6-1.9,4.9-2.9,9.8-2.9,14.9,0,11,4.1,20.9,12.4,29.6,8.3,8.7,20.1,13.1,35.4,13.1Z"/>
  <path class="st0" d="M987.3,300.3l-.8.5c-.5.3-1.3.7-2.2,1.1-1,.3-1.9.5-2.8.5-3.5,0-5.3-3.1-5.3-9.4v-21.6h14.3v-17.9h-14.3v-9.8h0c-4.1-.8-9.1-2.8-13.9-6.1-3.7-2.5-7-5.9-9.5-9.5v25.3h-9.8v17.9h9.8v26.1c0,3.3.4,6.3,1.1,9.2.7,2.9,1.9,5.6,3.5,8.2,1.6,2.6,4,4.7,7.2,6.2,3.2,1.5,7,2.3,11.4,2.3,6.4,0,12.2-1.4,17.2-4.2l-5.8-18.9Z"/>
</svg>